<mxfile host="app.diagrams.net" agent="Mozilla/5.0 (Windows NT 10.0; Win64; x64; rv:136.0) Gecko/20100101 Firefox/136.0" version="26.1.3">
  <diagram name="PÃ¡gina-1" id="4HU894fjQDBXfzfEQB9b">
    <mxGraphModel dx="2345" dy="1825" grid="1" gridSize="10" guides="1" tooltips="1" connect="1" arrows="1" fold="1" page="1" pageScale="1" pageWidth="827" pageHeight="1169" math="0" shadow="0">
      <root>
        <mxCell id="0" />
        <mxCell id="1" parent="0" />
        <mxCell id="99YnjHb1TMTvw05uR-Ba-2" value="Empresa&lt;span style=&quot;white-space: pre;&quot;&gt;&#x9;&lt;/span&gt;" style="swimlane;fontStyle=1;align=center;verticalAlign=top;childLayout=stackLayout;horizontal=1;startSize=26;horizontalStack=0;resizeParent=1;resizeParentMax=0;resizeLast=0;collapsible=1;marginBottom=0;whiteSpace=wrap;html=1;" parent="1" vertex="1">
          <mxGeometry x="-10" y="100" width="240" height="320" as="geometry" />
        </mxCell>
        <mxCell id="99YnjHb1TMTvw05uR-Ba-3" value="&lt;div&gt;-nombre:String&lt;/div&gt;&lt;div&gt;-ciut:int&lt;/div&gt;" style="text;strokeColor=none;fillColor=none;align=left;verticalAlign=top;spacingLeft=4;spacingRight=4;overflow=hidden;rotatable=0;points=[[0,0.5],[1,0.5]];portConstraint=eastwest;whiteSpace=wrap;html=1;" parent="99YnjHb1TMTvw05uR-Ba-2" vertex="1">
          <mxGeometry y="26" width="240" height="74" as="geometry" />
        </mxCell>
        <mxCell id="99YnjHb1TMTvw05uR-Ba-4" value="" style="line;strokeWidth=1;fillColor=none;align=left;verticalAlign=middle;spacingTop=-1;spacingLeft=3;spacingRight=3;rotatable=0;labelPosition=right;points=[];portConstraint=eastwest;strokeColor=inherit;" parent="99YnjHb1TMTvw05uR-Ba-2" vertex="1">
          <mxGeometry y="100" width="240" height="8" as="geometry" />
        </mxCell>
        <mxCell id="99YnjHb1TMTvw05uR-Ba-5" value="&lt;div&gt;+&lt;u&gt;new (nombre: String, cuit: int)&lt;/u&gt;&lt;/div&gt;&lt;div&gt;&lt;br&gt;&lt;/div&gt;&lt;div&gt;+nombre():String&lt;/div&gt;&lt;div&gt;+ciut():int&lt;/div&gt;&lt;div&gt;+empleados():Empleados[1..*]&lt;/div&gt;&lt;div&gt;&lt;br&gt;&lt;/div&gt;&lt;div&gt;+contratarEmpleado():void&lt;/div&gt;&lt;div&gt;+totalSueldosNetos():float&lt;/div&gt;&lt;div&gt;+totalSueldosBrutos():float&lt;/div&gt;&lt;div&gt;+totalRetenciones():float&lt;/div&gt;&lt;div&gt;+liquidacionSueldos():ReciboHaberes[1..*]&lt;/div&gt;&lt;div&gt;&lt;br&gt;&lt;/div&gt;" style="text;strokeColor=none;fillColor=none;align=left;verticalAlign=top;spacingLeft=4;spacingRight=4;overflow=hidden;rotatable=0;points=[[0,0.5],[1,0.5]];portConstraint=eastwest;whiteSpace=wrap;html=1;" parent="99YnjHb1TMTvw05uR-Ba-2" vertex="1">
          <mxGeometry y="108" width="240" height="212" as="geometry" />
        </mxCell>
        <mxCell id="99YnjHb1TMTvw05uR-Ba-6" value="&lt;i&gt;Empleado&lt;/i&gt;" style="swimlane;fontStyle=1;align=center;verticalAlign=top;childLayout=stackLayout;horizontal=1;startSize=26;horizontalStack=0;resizeParent=1;resizeParentMax=0;resizeLast=0;collapsible=1;marginBottom=0;whiteSpace=wrap;html=1;" parent="1" vertex="1">
          <mxGeometry x="500" y="90" width="300" height="570" as="geometry" />
        </mxCell>
        <mxCell id="99YnjHb1TMTvw05uR-Ba-7" value="&lt;div&gt;-nombre:String&lt;/div&gt;&lt;div&gt;-direccion:String&lt;/div&gt;&lt;div&gt;-estadoCivil:String&lt;/div&gt;&lt;div&gt;-fecNac:Date&lt;/div&gt;&lt;div&gt;-sueldoBasico:float&lt;/div&gt;&lt;div&gt;-recibos:ReciboHaberes[0..*]&lt;/div&gt;" style="text;strokeColor=none;fillColor=none;align=left;verticalAlign=top;spacingLeft=4;spacingRight=4;overflow=hidden;rotatable=0;points=[[0,0.5],[1,0.5]];portConstraint=eastwest;whiteSpace=wrap;html=1;" parent="99YnjHb1TMTvw05uR-Ba-6" vertex="1">
          <mxGeometry y="26" width="300" height="134" as="geometry" />
        </mxCell>
        <mxCell id="99YnjHb1TMTvw05uR-Ba-8" value="" style="line;strokeWidth=1;fillColor=none;align=left;verticalAlign=middle;spacingTop=-1;spacingLeft=3;spacingRight=3;rotatable=0;labelPosition=right;points=[];portConstraint=eastwest;strokeColor=inherit;" parent="99YnjHb1TMTvw05uR-Ba-6" vertex="1">
          <mxGeometry y="160" width="300" height="30" as="geometry" />
        </mxCell>
        <mxCell id="99YnjHb1TMTvw05uR-Ba-9" value="&lt;div&gt;&lt;u&gt;+new(nombre:String, direccion:String, estadoCivil:String, fecNac:Date)&lt;/u&gt;&lt;/div&gt;&lt;div&gt;&lt;br&gt;&lt;/div&gt;&lt;div&gt;+nombre():String&lt;/div&gt;&lt;div&gt;+direccion():String&lt;/div&gt;&lt;div&gt;+estadoCivil():String&lt;/div&gt;&lt;div&gt;+fecNac():Date&lt;/div&gt;&lt;div&gt;+sueldoBasico():float&lt;/div&gt;&lt;div&gt;+setSueldoBasico():void&lt;/div&gt;&lt;div&gt;+cobrar(ReciboHaberes):void&lt;/div&gt;&lt;div&gt;+recibos():ReciboHaberes[0..*]&lt;/div&gt;&lt;div&gt;&lt;br&gt;&lt;/div&gt;&lt;div&gt;+edad(fecNac:Date):int&lt;/div&gt;&lt;div&gt;+&lt;i&gt;sueldoBruto():float&lt;/i&gt;&lt;/div&gt;&lt;div&gt;+&lt;i&gt;retenciones():float&lt;/i&gt;&lt;/div&gt;&lt;div&gt;&lt;i&gt;+sueldoNeto():float&lt;/i&gt;&lt;/div&gt;&lt;div&gt;&lt;br&gt;&lt;/div&gt;&lt;div&gt;&lt;br&gt;&lt;/div&gt;&lt;div&gt;+&lt;i&gt;obraSocial():float&lt;/i&gt;&lt;/div&gt;&lt;div&gt;&lt;i&gt;+aportes():float&lt;/i&gt;&lt;/div&gt;" style="text;strokeColor=none;fillColor=none;align=left;verticalAlign=top;spacingLeft=4;spacingRight=4;overflow=hidden;rotatable=0;points=[[0,0.5],[1,0.5]];portConstraint=eastwest;whiteSpace=wrap;html=1;" parent="99YnjHb1TMTvw05uR-Ba-6" vertex="1">
          <mxGeometry y="190" width="300" height="380" as="geometry" />
        </mxCell>
        <mxCell id="99YnjHb1TMTvw05uR-Ba-17" value="PlantaPermanente" style="swimlane;fontStyle=1;align=center;verticalAlign=top;childLayout=stackLayout;horizontal=1;startSize=26;horizontalStack=0;resizeParent=1;resizeParentMax=0;resizeLast=0;collapsible=1;marginBottom=0;whiteSpace=wrap;html=1;" parent="1" vertex="1">
          <mxGeometry x="80" y="585" width="270" height="420" as="geometry" />
        </mxCell>
        <mxCell id="99YnjHb1TMTvw05uR-Ba-18" value="&lt;div&gt;-cantHijos:int&lt;/div&gt;&lt;div&gt;-antiguedad:int&lt;/div&gt;" style="text;strokeColor=none;fillColor=none;align=left;verticalAlign=top;spacingLeft=4;spacingRight=4;overflow=hidden;rotatable=0;points=[[0,0.5],[1,0.5]];portConstraint=eastwest;whiteSpace=wrap;html=1;" parent="99YnjHb1TMTvw05uR-Ba-17" vertex="1">
          <mxGeometry y="26" width="270" height="74" as="geometry" />
        </mxCell>
        <mxCell id="99YnjHb1TMTvw05uR-Ba-19" value="" style="line;strokeWidth=1;fillColor=none;align=left;verticalAlign=middle;spacingTop=-1;spacingLeft=3;spacingRight=3;rotatable=0;labelPosition=right;points=[];portConstraint=eastwest;strokeColor=inherit;" parent="99YnjHb1TMTvw05uR-Ba-17" vertex="1">
          <mxGeometry y="100" width="270" height="8" as="geometry" />
        </mxCell>
        <mxCell id="99YnjHb1TMTvw05uR-Ba-20" value="&lt;div&gt;+&lt;u&gt;new(int, int)&lt;/u&gt;&lt;/div&gt;&lt;div&gt;&lt;br&gt;&lt;/div&gt;&lt;div&gt;+cantHijos():int&lt;/div&gt;&lt;div&gt;+antiguedad():int&lt;/div&gt;&lt;div&gt;&lt;br&gt;&lt;/div&gt;&lt;div&gt;+sueldoBruto():float&lt;/div&gt;&lt;div&gt;+salarioFamiliar():float&lt;/div&gt;&lt;div&gt;+asignacionHijo():float&lt;/div&gt;&lt;div&gt;+asignacionConyuge():float&lt;/div&gt;&lt;div&gt;&lt;br&gt;&lt;/div&gt;&lt;div&gt;+extraPorAntiguedad():float&lt;/div&gt;&lt;div&gt;+retenciones():float&lt;/div&gt;&lt;div&gt;+obraSocial():float&lt;/div&gt;&lt;div&gt;+aportes():float&lt;/div&gt;&lt;div&gt;&lt;br&gt;&lt;/div&gt;&lt;div&gt;+conceptos():String[0..*]&lt;/div&gt;" style="text;strokeColor=none;fillColor=none;align=left;verticalAlign=top;spacingLeft=4;spacingRight=4;overflow=hidden;rotatable=0;points=[[0,0.5],[1,0.5]];portConstraint=eastwest;whiteSpace=wrap;html=1;" parent="99YnjHb1TMTvw05uR-Ba-17" vertex="1">
          <mxGeometry y="108" width="270" height="312" as="geometry" />
        </mxCell>
        <mxCell id="99YnjHb1TMTvw05uR-Ba-21" value="Extends" style="endArrow=block;endSize=16;endFill=0;html=1;rounded=0;exitX=0.704;exitY=0.019;exitDx=0;exitDy=0;exitPerimeter=0;entryX=0.184;entryY=1.006;entryDx=0;entryDy=0;entryPerimeter=0;" parent="1" source="99YnjHb1TMTvw05uR-Ba-17" target="99YnjHb1TMTvw05uR-Ba-9" edge="1">
          <mxGeometry width="160" relative="1" as="geometry">
            <mxPoint x="290" y="390" as="sourcePoint" />
            <mxPoint x="450" y="390" as="targetPoint" />
          </mxGeometry>
        </mxCell>
        <mxCell id="99YnjHb1TMTvw05uR-Ba-24" value="PlantaTemporaria" style="swimlane;fontStyle=1;align=center;verticalAlign=top;childLayout=stackLayout;horizontal=1;startSize=26;horizontalStack=0;resizeParent=1;resizeParentMax=0;resizeLast=0;collapsible=1;marginBottom=0;whiteSpace=wrap;html=1;" parent="1" vertex="1">
          <mxGeometry x="520" y="740" width="290" height="360" as="geometry" />
        </mxCell>
        <mxCell id="99YnjHb1TMTvw05uR-Ba-25" value="&lt;div&gt;-fecFinDesignacion:Date&lt;/div&gt;&lt;div&gt;-cantHorasExtras:int&lt;/div&gt;" style="text;strokeColor=none;fillColor=none;align=left;verticalAlign=top;spacingLeft=4;spacingRight=4;overflow=hidden;rotatable=0;points=[[0,0.5],[1,0.5]];portConstraint=eastwest;whiteSpace=wrap;html=1;" parent="99YnjHb1TMTvw05uR-Ba-24" vertex="1">
          <mxGeometry y="26" width="290" height="94" as="geometry" />
        </mxCell>
        <mxCell id="99YnjHb1TMTvw05uR-Ba-26" value="" style="line;strokeWidth=1;fillColor=none;align=left;verticalAlign=middle;spacingTop=-1;spacingLeft=3;spacingRight=3;rotatable=0;labelPosition=right;points=[];portConstraint=eastwest;strokeColor=inherit;" parent="99YnjHb1TMTvw05uR-Ba-24" vertex="1">
          <mxGeometry y="120" width="290" height="8" as="geometry" />
        </mxCell>
        <mxCell id="99YnjHb1TMTvw05uR-Ba-27" value="&lt;div&gt;&lt;u&gt;+new(Date, int)&lt;/u&gt;&lt;/div&gt;&lt;div&gt;&lt;br&gt;&lt;/div&gt;&lt;div&gt;+fecNacDesignacion():Date&lt;/div&gt;&lt;div&gt;+cantHorasExtras():int&lt;/div&gt;&lt;div&gt;+setCantHorasExtras():int&lt;/div&gt;&lt;div&gt;&lt;br&gt;&lt;/div&gt;&lt;div&gt;+sueldoBruto():float&lt;/div&gt;&lt;div&gt;+pagaHorasExtra():float&lt;/div&gt;&lt;div&gt;+retenciones():float&lt;/div&gt;&lt;div&gt;+obraSocial():float&lt;/div&gt;&lt;div&gt;+aportes():float&lt;/div&gt;&lt;div&gt;&lt;br&gt;&lt;/div&gt;&lt;div&gt;+conceptos():String[0..*]&lt;/div&gt;&lt;div&gt;&lt;br&gt;&lt;/div&gt;&lt;div&gt;&lt;br&gt;&lt;/div&gt;&lt;div&gt;&lt;br&gt;&lt;/div&gt;" style="text;strokeColor=none;fillColor=none;align=left;verticalAlign=top;spacingLeft=4;spacingRight=4;overflow=hidden;rotatable=0;points=[[0,0.5],[1,0.5]];portConstraint=eastwest;whiteSpace=wrap;html=1;" parent="99YnjHb1TMTvw05uR-Ba-24" vertex="1">
          <mxGeometry y="128" width="290" height="232" as="geometry" />
        </mxCell>
        <mxCell id="99YnjHb1TMTvw05uR-Ba-44" value="" style="endArrow=block;endFill=1;html=1;edgeStyle=orthogonalEdgeStyle;align=left;verticalAlign=top;rounded=0;exitX=0.188;exitY=0;exitDx=0;exitDy=0;exitPerimeter=0;entryX=0.586;entryY=0.983;entryDx=0;entryDy=0;entryPerimeter=0;" parent="1" source="99YnjHb1TMTvw05uR-Ba-6" target="fe8GkIuCQ7BO63lQiRAA-20" edge="1">
          <mxGeometry x="-1" relative="1" as="geometry">
            <mxPoint x="469" y="140" as="sourcePoint" />
            <mxPoint x="640" y="-102" as="targetPoint" />
            <Array as="points">
              <mxPoint x="556" y="-20" />
              <mxPoint x="742" y="-20" />
            </Array>
          </mxGeometry>
        </mxCell>
        <mxCell id="99YnjHb1TMTvw05uR-Ba-46" value="*" style="edgeLabel;html=1;align=center;verticalAlign=middle;resizable=0;points=[];" parent="99YnjHb1TMTvw05uR-Ba-44" vertex="1" connectable="0">
          <mxGeometry x="0.8402" y="-1" relative="1" as="geometry">
            <mxPoint as="offset" />
          </mxGeometry>
        </mxCell>
        <mxCell id="99YnjHb1TMTvw05uR-Ba-53" value="1" style="edgeLabel;html=1;align=center;verticalAlign=middle;resizable=0;points=[];" parent="99YnjHb1TMTvw05uR-Ba-44" vertex="1" connectable="0">
          <mxGeometry x="-0.8106" y="-1" relative="1" as="geometry">
            <mxPoint as="offset" />
          </mxGeometry>
        </mxCell>
        <mxCell id="fe8GkIuCQ7BO63lQiRAA-7" value="&lt;div&gt;recibos&lt;/div&gt;&lt;div&gt;&lt;br&gt;&lt;/div&gt;" style="edgeLabel;html=1;align=center;verticalAlign=middle;resizable=0;points=[];fontSize=12;" parent="99YnjHb1TMTvw05uR-Ba-44" vertex="1" connectable="0">
          <mxGeometry x="0.3179" y="-1" relative="1" as="geometry">
            <mxPoint as="offset" />
          </mxGeometry>
        </mxCell>
        <mxCell id="99YnjHb1TMTvw05uR-Ba-62" value="Contratado" style="swimlane;fontStyle=1;align=center;verticalAlign=top;childLayout=stackLayout;horizontal=1;startSize=26;horizontalStack=0;resizeParent=1;resizeParentMax=0;resizeLast=0;collapsible=1;marginBottom=0;whiteSpace=wrap;html=1;" parent="1" vertex="1">
          <mxGeometry x="960" y="410" width="220" height="400" as="geometry" />
        </mxCell>
        <mxCell id="99YnjHb1TMTvw05uR-Ba-63" value="&lt;div&gt;-nroContratado:int&lt;/div&gt;&lt;div&gt;-medioPago:String&lt;/div&gt;" style="text;strokeColor=none;fillColor=none;align=left;verticalAlign=top;spacingLeft=4;spacingRight=4;overflow=hidden;rotatable=0;points=[[0,0.5],[1,0.5]];portConstraint=eastwest;whiteSpace=wrap;html=1;" parent="99YnjHb1TMTvw05uR-Ba-62" vertex="1">
          <mxGeometry y="26" width="220" height="104" as="geometry" />
        </mxCell>
        <mxCell id="99YnjHb1TMTvw05uR-Ba-64" value="" style="line;strokeWidth=1;fillColor=none;align=left;verticalAlign=middle;spacingTop=-1;spacingLeft=3;spacingRight=3;rotatable=0;labelPosition=right;points=[];portConstraint=eastwest;strokeColor=inherit;" parent="99YnjHb1TMTvw05uR-Ba-62" vertex="1">
          <mxGeometry y="130" width="220" height="8" as="geometry" />
        </mxCell>
        <mxCell id="99YnjHb1TMTvw05uR-Ba-65" value="&lt;div&gt;+&lt;u&gt;new(int, String)&lt;/u&gt;&lt;/div&gt;&lt;div&gt;&lt;br&gt;&lt;/div&gt;&lt;div&gt;+nroContratado():int&lt;/div&gt;&lt;div&gt;+medioPago():String&lt;/div&gt;&lt;div&gt;&lt;br&gt;&lt;/div&gt;&lt;div&gt;&lt;br&gt;&lt;/div&gt;&lt;div&gt;+sueldoBruto():float&lt;/div&gt;&lt;div&gt;+sueldoNeto():float&lt;/div&gt;&lt;div&gt;&lt;br&gt;&lt;/div&gt;&lt;div&gt;+conceptos():String[0..*]&lt;/div&gt;" style="text;strokeColor=none;fillColor=none;align=left;verticalAlign=top;spacingLeft=4;spacingRight=4;overflow=hidden;rotatable=0;points=[[0,0.5],[1,0.5]];portConstraint=eastwest;whiteSpace=wrap;html=1;" parent="99YnjHb1TMTvw05uR-Ba-62" vertex="1">
          <mxGeometry y="138" width="220" height="262" as="geometry" />
        </mxCell>
        <mxCell id="fe8GkIuCQ7BO63lQiRAA-1" value="Colecciones se ponen como una flecha como una cardinalidad" style="text;html=1;align=center;verticalAlign=middle;resizable=0;points=[];autosize=1;strokeColor=none;fillColor=none;fontSize=16;" parent="1" vertex="1">
          <mxGeometry x="-230" y="1030" width="470" height="30" as="geometry" />
        </mxCell>
        <mxCell id="99YnjHb1TMTvw05uR-Ba-10" value="" style="endArrow=block;endFill=1;html=1;edgeStyle=orthogonalEdgeStyle;align=left;verticalAlign=top;rounded=0;entryX=-0.011;entryY=0.08;entryDx=0;entryDy=0;entryPerimeter=0;exitX=0.992;exitY=0.837;exitDx=0;exitDy=0;exitPerimeter=0;" parent="1" source="99YnjHb1TMTvw05uR-Ba-3" target="99YnjHb1TMTvw05uR-Ba-9" edge="1">
          <mxGeometry x="-1" relative="1" as="geometry">
            <mxPoint x="310" y="220" as="sourcePoint" />
            <mxPoint x="310" y="340" as="targetPoint" />
          </mxGeometry>
        </mxCell>
        <mxCell id="99YnjHb1TMTvw05uR-Ba-12" value="1..*" style="edgeLabel;html=1;align=center;verticalAlign=middle;resizable=0;points=[];" parent="99YnjHb1TMTvw05uR-Ba-10" vertex="1" connectable="0">
          <mxGeometry x="-0.7835" y="-1" relative="1" as="geometry">
            <mxPoint x="7" as="offset" />
          </mxGeometry>
        </mxCell>
        <mxCell id="99YnjHb1TMTvw05uR-Ba-13" value="&lt;div&gt;empleados&lt;/div&gt;" style="edgeLabel;html=1;align=center;verticalAlign=middle;resizable=0;points=[];" parent="99YnjHb1TMTvw05uR-Ba-10" vertex="1" connectable="0">
          <mxGeometry x="-0.0884" y="-1" relative="1" as="geometry">
            <mxPoint as="offset" />
          </mxGeometry>
        </mxCell>
        <mxCell id="99YnjHb1TMTvw05uR-Ba-55" value="empleador" style="edgeLabel;html=1;align=center;verticalAlign=middle;resizable=0;points=[];" parent="99YnjHb1TMTvw05uR-Ba-10" vertex="1" connectable="0">
          <mxGeometry x="-0.6023" relative="1" as="geometry">
            <mxPoint x="-11" as="offset" />
          </mxGeometry>
        </mxCell>
        <mxCell id="99YnjHb1TMTvw05uR-Ba-61" value="*" style="edgeLabel;html=1;align=center;verticalAlign=middle;resizable=0;points=[];" parent="99YnjHb1TMTvw05uR-Ba-10" vertex="1" connectable="0">
          <mxGeometry x="0.8632" relative="1" as="geometry">
            <mxPoint as="offset" />
          </mxGeometry>
        </mxCell>
        <mxCell id="fe8GkIuCQ7BO63lQiRAA-3" value="empleado" style="edgeLabel;html=1;align=center;verticalAlign=middle;resizable=0;points=[];fontSize=12;" parent="99YnjHb1TMTvw05uR-Ba-10" vertex="1" connectable="0">
          <mxGeometry x="0.6252" relative="1" as="geometry">
            <mxPoint as="offset" />
          </mxGeometry>
        </mxCell>
        <mxCell id="fe8GkIuCQ7BO63lQiRAA-4" value="1" style="edgeLabel;html=1;align=center;verticalAlign=middle;resizable=0;points=[];fontSize=12;" parent="99YnjHb1TMTvw05uR-Ba-10" vertex="1" connectable="0">
          <mxGeometry x="-0.8995" y="1" relative="1" as="geometry">
            <mxPoint as="offset" />
          </mxGeometry>
        </mxCell>
        <mxCell id="fe8GkIuCQ7BO63lQiRAA-17" value="ReciboHaberes" style="swimlane;fontStyle=1;align=center;verticalAlign=top;childLayout=stackLayout;horizontal=1;startSize=26;horizontalStack=0;resizeParent=1;resizeParentMax=0;resizeLast=0;collapsible=1;marginBottom=0;whiteSpace=wrap;html=1;" parent="1" vertex="1">
          <mxGeometry x="560" y="-330" width="310" height="200" as="geometry" />
        </mxCell>
        <mxCell id="fe8GkIuCQ7BO63lQiRAA-18" value="&lt;div&gt;+nombreEmpleado:String&lt;/div&gt;&lt;div&gt;+direccion:String&lt;/div&gt;&lt;div&gt;+FechaEmicion:Date&lt;/div&gt;&lt;div&gt;+SueldoBruto:float&lt;/div&gt;&lt;div&gt;+SueldoNeto:float&lt;/div&gt;&lt;div&gt;&lt;br&gt;&lt;br&gt;&lt;/div&gt;" style="text;strokeColor=none;fillColor=none;align=left;verticalAlign=top;spacingLeft=4;spacingRight=4;overflow=hidden;rotatable=0;points=[[0,0.5],[1,0.5]];portConstraint=eastwest;whiteSpace=wrap;html=1;" parent="fe8GkIuCQ7BO63lQiRAA-17" vertex="1">
          <mxGeometry y="26" width="310" height="84" as="geometry" />
        </mxCell>
        <mxCell id="fe8GkIuCQ7BO63lQiRAA-19" value="" style="line;strokeWidth=1;fillColor=none;align=left;verticalAlign=middle;spacingTop=-1;spacingLeft=3;spacingRight=3;rotatable=0;labelPosition=right;points=[];portConstraint=eastwest;strokeColor=inherit;" parent="fe8GkIuCQ7BO63lQiRAA-17" vertex="1">
          <mxGeometry y="110" width="310" height="8" as="geometry" />
        </mxCell>
        <mxCell id="fe8GkIuCQ7BO63lQiRAA-20" value="&lt;u&gt;+new(Empleado)&lt;/u&gt;" style="text;strokeColor=none;fillColor=none;align=left;verticalAlign=top;spacingLeft=4;spacingRight=4;overflow=hidden;rotatable=0;points=[[0,0.5],[1,0.5]];portConstraint=eastwest;whiteSpace=wrap;html=1;" parent="fe8GkIuCQ7BO63lQiRAA-17" vertex="1">
          <mxGeometry y="118" width="310" height="82" as="geometry" />
        </mxCell>
        <mxCell id="99YnjHb1TMTvw05uR-Ba-23" value="Extends" style="endArrow=block;endSize=16;endFill=0;html=1;rounded=0;exitX=0.437;exitY=-0.003;exitDx=0;exitDy=0;exitPerimeter=0;" parent="1" source="99YnjHb1TMTvw05uR-Ba-24" target="99YnjHb1TMTvw05uR-Ba-9" edge="1">
          <mxGeometry width="160" relative="1" as="geometry">
            <mxPoint x="512" y="380" as="sourcePoint" />
            <mxPoint x="570" y="460" as="targetPoint" />
          </mxGeometry>
        </mxCell>
        <mxCell id="99YnjHb1TMTvw05uR-Ba-66" value="Extends" style="endArrow=block;endSize=16;endFill=0;html=1;rounded=0;exitX=-0.003;exitY=0.11;exitDx=0;exitDy=0;exitPerimeter=0;entryX=1.013;entryY=0.723;entryDx=0;entryDy=0;entryPerimeter=0;" parent="1" source="99YnjHb1TMTvw05uR-Ba-63" target="99YnjHb1TMTvw05uR-Ba-9" edge="1">
          <mxGeometry width="160" relative="1" as="geometry">
            <mxPoint x="521" y="392" as="sourcePoint" />
            <mxPoint x="561" y="470" as="targetPoint" />
          </mxGeometry>
        </mxCell>
      </root>
    </mxGraphModel>
  </diagram>
</mxfile>
